<svg width="121" height="21" viewBox="0 0 121 21" fill="none" xmlns="http://www.w3.org/2000/svg">
<path d="M10.5 15.75L4.32825 18.9947L5.50695 12.1223L0.513907 7.25532L7.41413 6.25266L10.5 0L13.5859 6.25266L20.4861 7.25532L15.493 12.1223L16.6717 18.9947L10.5 15.75Z" fill="#FCBF59"/>
<path d="M60.5 15.75L54.3283 18.9947L55.507 12.1223L50.5139 7.25532L57.4141 6.25266L60.5 0L63.5859 6.25266L70.4861 7.25532L65.493 12.1223L66.6717 18.9947L60.5 15.75Z" fill="#FCBF59"/>
<path d="M35.5 15.75L29.3283 18.9947L30.507 12.1223L25.5139 7.25532L32.4141 6.25266L35.5 0L38.5859 6.25266L45.4861 7.25532L40.493 12.1223L41.6717 18.9947L35.5 15.75Z" fill="#FCBF59"/>
<path d="M85.5 15.75L79.3283 18.9947L80.507 12.1223L75.5139 7.25532L82.4141 6.25266L85.5 0L88.5859 6.25266L95.4861 7.25532L90.493 12.1223L91.6717 18.9947L85.5 15.75Z" fill="#FCBF59"/>
<path d="M110.5 15.75L104.328 18.9947L105.507 12.1223L100.514 7.25532L107.414 6.25266L110.5 0L113.586 6.25266L120.486 7.25532L115.493 12.1223L116.672 18.9947L110.5 15.75Z" fill="#FCBF59"/>
</svg>
