<svg width="32" height="32" viewBox="0 0 32 32" fill="none" xmlns="http://www.w3.org/2000/svg">
<circle cx="16" cy="16" r="16" fill="white" fill-opacity="0.527344"/>
<path fill-rule="evenodd" clip-rule="evenodd" d="M16 14.4636L9.85455 8.31819C9.4303 7.89394 8.74245 7.89394 8.31819 8.31819C7.89394 8.74245 7.89394 9.4303 8.31819 9.85455L14.4636 16L8.31819 22.1454C7.89394 22.5697 7.89394 23.2576 8.31819 23.6818C8.74245 24.1061 9.4303 24.1061 9.85455 23.6818L16 17.5364L22.1454 23.6818C22.5697 24.1061 23.2576 24.1061 23.6818 23.6818C24.1061 23.2576 24.1061 22.5697 23.6818 22.1454L17.5364 16L23.6818 9.85455C24.1061 9.4303 24.1061 8.74245 23.6818 8.31819C23.2576 7.89394 22.5697 7.89394 22.1454 8.31819L16 14.4636Z" fill="url(#paint0_linear_0:38)"/>
<defs>
<linearGradient id="paint0_linear_0:38" x1="16" y1="0" x2="0" y2="16" gradientUnits="userSpaceOnUse">
<stop stop-color="#894AC9"/>
<stop offset="1" stop-color="#4D46B1"/>
</linearGradient>
</defs>
</svg>
